<mxfile host="app.diagrams.net" modified="2024-05-17T15:07:26.420Z" agent="Mozilla/5.0 (Windows NT 10.0; Win64; x64) AppleWebKit/537.36 (KHTML, like Gecko) Chrome/124.0.0.0 Safari/537.36" etag="-f7E8a9L1ZXiUvKGBZKD" version="24.4.4" type="github">
  <diagram id="C5RBs43oDa-KdzZeNtuy" name="Page-1">
    <mxGraphModel dx="3038" dy="1768" grid="1" gridSize="10" guides="1" tooltips="1" connect="1" arrows="1" fold="1" page="1" pageScale="1" pageWidth="827" pageHeight="1169" math="0" shadow="0">
      <root>
        <mxCell id="WIyWlLk6GJQsqaUBKTNV-0" />
        <mxCell id="WIyWlLk6GJQsqaUBKTNV-1" parent="WIyWlLk6GJQsqaUBKTNV-0" />
        <mxCell id="9rlHRxyPnhzW2T0-l2du-4" value="" style="edgeStyle=orthogonalEdgeStyle;rounded=0;orthogonalLoop=1;jettySize=auto;html=1;" edge="1" parent="WIyWlLk6GJQsqaUBKTNV-1" source="9rlHRxyPnhzW2T0-l2du-2" target="9rlHRxyPnhzW2T0-l2du-3">
          <mxGeometry relative="1" as="geometry" />
        </mxCell>
        <mxCell id="9rlHRxyPnhzW2T0-l2du-2" value="前端请求腰部tab&lt;div&gt;接口&lt;/div&gt;" style="ellipse;whiteSpace=wrap;html=1;" vertex="1" parent="WIyWlLk6GJQsqaUBKTNV-1">
          <mxGeometry x="-810" y="-1160" width="120" height="60" as="geometry" />
        </mxCell>
        <mxCell id="9rlHRxyPnhzW2T0-l2du-6" value="" style="edgeStyle=orthogonalEdgeStyle;rounded=0;orthogonalLoop=1;jettySize=auto;html=1;" edge="1" parent="WIyWlLk6GJQsqaUBKTNV-1" source="9rlHRxyPnhzW2T0-l2du-3" target="9rlHRxyPnhzW2T0-l2du-5">
          <mxGeometry relative="1" as="geometry" />
        </mxCell>
        <mxCell id="9rlHRxyPnhzW2T0-l2du-3" value="请求算法侧接口" style="rounded=0;whiteSpace=wrap;html=1;" vertex="1" parent="WIyWlLk6GJQsqaUBKTNV-1">
          <mxGeometry x="-810" y="-1060" width="120" height="60" as="geometry" />
        </mxCell>
        <mxCell id="9rlHRxyPnhzW2T0-l2du-8" value="" style="edgeStyle=orthogonalEdgeStyle;rounded=0;orthogonalLoop=1;jettySize=auto;html=1;" edge="1" parent="WIyWlLk6GJQsqaUBKTNV-1" source="9rlHRxyPnhzW2T0-l2du-5" target="9rlHRxyPnhzW2T0-l2du-7">
          <mxGeometry relative="1" as="geometry" />
        </mxCell>
        <mxCell id="9rlHRxyPnhzW2T0-l2du-9" value="否" style="edgeLabel;html=1;align=center;verticalAlign=middle;resizable=0;points=[];" vertex="1" connectable="0" parent="9rlHRxyPnhzW2T0-l2du-8">
          <mxGeometry x="-0.3185" relative="1" as="geometry">
            <mxPoint as="offset" />
          </mxGeometry>
        </mxCell>
        <mxCell id="9rlHRxyPnhzW2T0-l2du-11" value="" style="edgeStyle=orthogonalEdgeStyle;rounded=0;orthogonalLoop=1;jettySize=auto;html=1;" edge="1" parent="WIyWlLk6GJQsqaUBKTNV-1" source="9rlHRxyPnhzW2T0-l2du-5" target="9rlHRxyPnhzW2T0-l2du-10">
          <mxGeometry relative="1" as="geometry" />
        </mxCell>
        <mxCell id="9rlHRxyPnhzW2T0-l2du-12" value="是" style="edgeLabel;html=1;align=center;verticalAlign=middle;resizable=0;points=[];" vertex="1" connectable="0" parent="9rlHRxyPnhzW2T0-l2du-11">
          <mxGeometry x="-0.3333" relative="1" as="geometry">
            <mxPoint as="offset" />
          </mxGeometry>
        </mxCell>
        <mxCell id="9rlHRxyPnhzW2T0-l2du-5" value="是否成功" style="rhombus;whiteSpace=wrap;html=1;rounded=0;" vertex="1" parent="WIyWlLk6GJQsqaUBKTNV-1">
          <mxGeometry x="-830" y="-950" width="160" height="80" as="geometry" />
        </mxCell>
        <mxCell id="9rlHRxyPnhzW2T0-l2du-15" value="" style="edgeStyle=orthogonalEdgeStyle;rounded=0;orthogonalLoop=1;jettySize=auto;html=1;" edge="1" parent="WIyWlLk6GJQsqaUBKTNV-1" source="9rlHRxyPnhzW2T0-l2du-7" target="9rlHRxyPnhzW2T0-l2du-14">
          <mxGeometry relative="1" as="geometry" />
        </mxCell>
        <mxCell id="9rlHRxyPnhzW2T0-l2du-7" value="&lt;div&gt;使用默认tab顺序&lt;br&gt;&amp;amp;&lt;/div&gt;使用默认类目&lt;div&gt;（674、8、12、4、8512）&lt;/div&gt;" style="whiteSpace=wrap;html=1;rounded=0;" vertex="1" parent="WIyWlLk6GJQsqaUBKTNV-1">
          <mxGeometry x="-610" y="-940" width="150" height="60" as="geometry" />
        </mxCell>
        <mxCell id="9rlHRxyPnhzW2T0-l2du-16" value="" style="edgeStyle=orthogonalEdgeStyle;rounded=0;orthogonalLoop=1;jettySize=auto;html=1;" edge="1" parent="WIyWlLk6GJQsqaUBKTNV-1" source="9rlHRxyPnhzW2T0-l2du-10" target="9rlHRxyPnhzW2T0-l2du-14">
          <mxGeometry relative="1" as="geometry" />
        </mxCell>
        <mxCell id="9rlHRxyPnhzW2T0-l2du-10" value="&lt;div&gt;使用算法侧tab顺序&lt;/div&gt;&lt;div&gt;&amp;amp;&lt;/div&gt;使用算法测返回类目" style="whiteSpace=wrap;html=1;rounded=0;" vertex="1" parent="WIyWlLk6GJQsqaUBKTNV-1">
          <mxGeometry x="-810" y="-820" width="120" height="60" as="geometry" />
        </mxCell>
        <mxCell id="9rlHRxyPnhzW2T0-l2du-14" value="返回前端" style="ellipse;whiteSpace=wrap;html=1;" vertex="1" parent="WIyWlLk6GJQsqaUBKTNV-1">
          <mxGeometry x="-600" y="-825" width="130" height="70" as="geometry" />
        </mxCell>
        <mxCell id="9rlHRxyPnhzW2T0-l2du-19" value="" style="edgeStyle=orthogonalEdgeStyle;rounded=0;orthogonalLoop=1;jettySize=auto;html=1;" edge="1" parent="WIyWlLk6GJQsqaUBKTNV-1" source="9rlHRxyPnhzW2T0-l2du-17" target="9rlHRxyPnhzW2T0-l2du-18">
          <mxGeometry relative="1" as="geometry" />
        </mxCell>
        <mxCell id="9rlHRxyPnhzW2T0-l2du-17" value="前端请求tab&lt;div&gt;数据接口（卡片列表）&lt;/div&gt;" style="ellipse;whiteSpace=wrap;html=1;" vertex="1" parent="WIyWlLk6GJQsqaUBKTNV-1">
          <mxGeometry x="-810" y="-709" width="130" height="70" as="geometry" />
        </mxCell>
        <mxCell id="9rlHRxyPnhzW2T0-l2du-25" value="" style="edgeStyle=orthogonalEdgeStyle;rounded=0;orthogonalLoop=1;jettySize=auto;html=1;" edge="1" parent="WIyWlLk6GJQsqaUBKTNV-1" source="9rlHRxyPnhzW2T0-l2du-18" target="9rlHRxyPnhzW2T0-l2du-23">
          <mxGeometry relative="1" as="geometry" />
        </mxCell>
        <mxCell id="9rlHRxyPnhzW2T0-l2du-18" value="后端按照指定tab+指定类目同时检索多个卡片数据" style="rounded=0;whiteSpace=wrap;html=1;" vertex="1" parent="WIyWlLk6GJQsqaUBKTNV-1">
          <mxGeometry x="-805" y="-609" width="120" height="60" as="geometry" />
        </mxCell>
        <mxCell id="9rlHRxyPnhzW2T0-l2du-29" value="" style="edgeStyle=orthogonalEdgeStyle;rounded=0;orthogonalLoop=1;jettySize=auto;html=1;" edge="1" parent="WIyWlLk6GJQsqaUBKTNV-1" source="9rlHRxyPnhzW2T0-l2du-22" target="9rlHRxyPnhzW2T0-l2du-51">
          <mxGeometry relative="1" as="geometry">
            <mxPoint x="-840" y="-330" as="targetPoint" />
          </mxGeometry>
        </mxCell>
        <mxCell id="9rlHRxyPnhzW2T0-l2du-22" value="查询榜单数据" style="rounded=0;whiteSpace=wrap;html=1;" vertex="1" parent="WIyWlLk6GJQsqaUBKTNV-1">
          <mxGeometry x="-900" y="-460" width="120" height="60" as="geometry" />
        </mxCell>
        <mxCell id="9rlHRxyPnhzW2T0-l2du-31" value="" style="edgeStyle=orthogonalEdgeStyle;rounded=0;orthogonalLoop=1;jettySize=auto;html=1;" edge="1" parent="WIyWlLk6GJQsqaUBKTNV-1" source="9rlHRxyPnhzW2T0-l2du-23" target="9rlHRxyPnhzW2T0-l2du-30">
          <mxGeometry relative="1" as="geometry" />
        </mxCell>
        <mxCell id="9rlHRxyPnhzW2T0-l2du-23" value="查询非榜单卡片" style="rounded=0;whiteSpace=wrap;html=1;" vertex="1" parent="WIyWlLk6GJQsqaUBKTNV-1">
          <mxGeometry x="-710" y="-460" width="120" height="60" as="geometry" />
        </mxCell>
        <mxCell id="9rlHRxyPnhzW2T0-l2du-27" value="" style="edgeStyle=orthogonalEdgeStyle;rounded=0;orthogonalLoop=1;jettySize=auto;html=1;exitX=0.5;exitY=1;exitDx=0;exitDy=0;entryX=0.5;entryY=0;entryDx=0;entryDy=0;" edge="1" parent="WIyWlLk6GJQsqaUBKTNV-1" source="9rlHRxyPnhzW2T0-l2du-18" target="9rlHRxyPnhzW2T0-l2du-22">
          <mxGeometry relative="1" as="geometry">
            <mxPoint x="-905.55" y="-490" as="sourcePoint" />
            <mxPoint x="-810" y="-460" as="targetPoint" />
          </mxGeometry>
        </mxCell>
        <mxCell id="9rlHRxyPnhzW2T0-l2du-35" value="" style="edgeStyle=orthogonalEdgeStyle;rounded=0;orthogonalLoop=1;jettySize=auto;html=1;" edge="1" parent="WIyWlLk6GJQsqaUBKTNV-1" source="9rlHRxyPnhzW2T0-l2du-30" target="9rlHRxyPnhzW2T0-l2du-34">
          <mxGeometry relative="1" as="geometry" />
        </mxCell>
        <mxCell id="9rlHRxyPnhzW2T0-l2du-30" value="使用当前类目、上级类目直至一级类目查询数据（并行）" style="rounded=0;whiteSpace=wrap;html=1;" vertex="1" parent="WIyWlLk6GJQsqaUBKTNV-1">
          <mxGeometry x="-710" y="-370" width="120" height="60" as="geometry" />
        </mxCell>
        <mxCell id="9rlHRxyPnhzW2T0-l2du-37" value="" style="edgeStyle=orthogonalEdgeStyle;rounded=0;orthogonalLoop=1;jettySize=auto;html=1;" edge="1" parent="WIyWlLk6GJQsqaUBKTNV-1" source="9rlHRxyPnhzW2T0-l2du-34" target="9rlHRxyPnhzW2T0-l2du-36">
          <mxGeometry relative="1" as="geometry" />
        </mxCell>
        <mxCell id="9rlHRxyPnhzW2T0-l2du-38" value="否" style="edgeLabel;html=1;align=center;verticalAlign=middle;resizable=0;points=[];" vertex="1" connectable="0" parent="9rlHRxyPnhzW2T0-l2du-37">
          <mxGeometry x="-0.0611" y="1" relative="1" as="geometry">
            <mxPoint as="offset" />
          </mxGeometry>
        </mxCell>
        <mxCell id="9rlHRxyPnhzW2T0-l2du-45" value="" style="edgeStyle=orthogonalEdgeStyle;rounded=0;orthogonalLoop=1;jettySize=auto;html=1;" edge="1" parent="WIyWlLk6GJQsqaUBKTNV-1" source="9rlHRxyPnhzW2T0-l2du-34" target="9rlHRxyPnhzW2T0-l2du-44">
          <mxGeometry relative="1" as="geometry" />
        </mxCell>
        <mxCell id="9rlHRxyPnhzW2T0-l2du-64" value="是" style="edgeLabel;html=1;align=center;verticalAlign=middle;resizable=0;points=[];" vertex="1" connectable="0" parent="9rlHRxyPnhzW2T0-l2du-45">
          <mxGeometry x="-0.3021" y="5" relative="1" as="geometry">
            <mxPoint as="offset" />
          </mxGeometry>
        </mxCell>
        <mxCell id="9rlHRxyPnhzW2T0-l2du-34" value="是否有结果" style="rhombus;whiteSpace=wrap;html=1;rounded=0;" vertex="1" parent="WIyWlLk6GJQsqaUBKTNV-1">
          <mxGeometry x="-720" y="-280" width="140" height="80" as="geometry" />
        </mxCell>
        <mxCell id="9rlHRxyPnhzW2T0-l2du-49" value="" style="edgeStyle=orthogonalEdgeStyle;rounded=0;orthogonalLoop=1;jettySize=auto;html=1;" edge="1" parent="WIyWlLk6GJQsqaUBKTNV-1" source="9rlHRxyPnhzW2T0-l2du-36" target="9rlHRxyPnhzW2T0-l2du-48">
          <mxGeometry relative="1" as="geometry" />
        </mxCell>
        <mxCell id="9rlHRxyPnhzW2T0-l2du-36" value="使用默认类目&lt;div&gt;（674、8、12、4、8512）&lt;div&gt;尝试获取相关卡片数据&lt;/div&gt;&lt;/div&gt;" style="whiteSpace=wrap;html=1;rounded=0;" vertex="1" parent="WIyWlLk6GJQsqaUBKTNV-1">
          <mxGeometry x="-531" y="-270" width="160" height="60" as="geometry" />
        </mxCell>
        <mxCell id="9rlHRxyPnhzW2T0-l2du-39" value="tab为车&amp;amp;卡片为百科，则此卡片类目使用29" style="whiteSpace=wrap;html=1;rounded=1;arcSize=50;align=center;verticalAlign=middle;strokeWidth=1;autosize=1;spacing=4;treeFolding=1;treeMoving=1;newEdgeStyle={&quot;edgeStyle&quot;:&quot;entityRelationEdgeStyle&quot;,&quot;startArrow&quot;:&quot;none&quot;,&quot;endArrow&quot;:&quot;none&quot;,&quot;segment&quot;:10,&quot;curved&quot;:1,&quot;sourcePerimeterSpacing&quot;:0,&quot;targetPerimeterSpacing&quot;:0};" vertex="1" parent="WIyWlLk6GJQsqaUBKTNV-1">
          <mxGeometry x="-553" y="-540" width="140" height="60" as="geometry" />
        </mxCell>
        <mxCell id="9rlHRxyPnhzW2T0-l2du-40" value="" style="edgeStyle=entityRelationEdgeStyle;startArrow=none;endArrow=none;segment=10;curved=1;sourcePerimeterSpacing=0;targetPerimeterSpacing=0;rounded=0;" edge="1" target="9rlHRxyPnhzW2T0-l2du-39" parent="WIyWlLk6GJQsqaUBKTNV-1">
          <mxGeometry relative="1" as="geometry">
            <mxPoint x="-610" y="-460" as="sourcePoint" />
          </mxGeometry>
        </mxCell>
        <mxCell id="9rlHRxyPnhzW2T0-l2du-42" value="tab为租房和买房，则使用8和12召回榜单" style="whiteSpace=wrap;html=1;rounded=1;arcSize=50;align=center;verticalAlign=middle;strokeWidth=1;autosize=1;spacing=4;treeFolding=1;treeMoving=1;newEdgeStyle={&quot;edgeStyle&quot;:&quot;entityRelationEdgeStyle&quot;,&quot;startArrow&quot;:&quot;none&quot;,&quot;endArrow&quot;:&quot;none&quot;,&quot;segment&quot;:10,&quot;curved&quot;:1,&quot;sourcePerimeterSpacing&quot;:0,&quot;targetPerimeterSpacing&quot;:0};" vertex="1" parent="WIyWlLk6GJQsqaUBKTNV-1">
          <mxGeometry x="-1020" y="-535" width="130" height="50" as="geometry" />
        </mxCell>
        <mxCell id="9rlHRxyPnhzW2T0-l2du-43" value="" style="edgeStyle=entityRelationEdgeStyle;startArrow=none;endArrow=none;segment=10;curved=1;sourcePerimeterSpacing=0;targetPerimeterSpacing=0;rounded=0;exitX=0.404;exitY=0.009;exitDx=0;exitDy=0;exitPerimeter=0;" edge="1" target="9rlHRxyPnhzW2T0-l2du-42" parent="WIyWlLk6GJQsqaUBKTNV-1" source="9rlHRxyPnhzW2T0-l2du-22">
          <mxGeometry relative="1" as="geometry">
            <mxPoint x="-913.1199999999999" y="-467.5899999999999" as="sourcePoint" />
            <Array as="points">
              <mxPoint x="-850" y="-460" />
              <mxPoint x="-860" y="-460" />
              <mxPoint x="-860" y="-460" />
            </Array>
          </mxGeometry>
        </mxCell>
        <mxCell id="9rlHRxyPnhzW2T0-l2du-54" value="" style="edgeStyle=orthogonalEdgeStyle;rounded=0;orthogonalLoop=1;jettySize=auto;html=1;" edge="1" parent="WIyWlLk6GJQsqaUBKTNV-1" source="9rlHRxyPnhzW2T0-l2du-44" target="9rlHRxyPnhzW2T0-l2du-52">
          <mxGeometry relative="1" as="geometry" />
        </mxCell>
        <mxCell id="9rlHRxyPnhzW2T0-l2du-44" value="使用结果" style="whiteSpace=wrap;html=1;rounded=0;" vertex="1" parent="WIyWlLk6GJQsqaUBKTNV-1">
          <mxGeometry x="-707.5" y="-155" width="115" height="50" as="geometry" />
        </mxCell>
        <mxCell id="9rlHRxyPnhzW2T0-l2du-50" value="" style="edgeStyle=orthogonalEdgeStyle;rounded=0;orthogonalLoop=1;jettySize=auto;html=1;" edge="1" parent="WIyWlLk6GJQsqaUBKTNV-1" source="9rlHRxyPnhzW2T0-l2du-48" target="9rlHRxyPnhzW2T0-l2du-44">
          <mxGeometry relative="1" as="geometry" />
        </mxCell>
        <mxCell id="9rlHRxyPnhzW2T0-l2du-48" value="标记结果为兜底数据" style="whiteSpace=wrap;html=1;rounded=0;" vertex="1" parent="WIyWlLk6GJQsqaUBKTNV-1">
          <mxGeometry x="-511" y="-160" width="120" height="60" as="geometry" />
        </mxCell>
        <mxCell id="9rlHRxyPnhzW2T0-l2du-53" value="" style="edgeStyle=orthogonalEdgeStyle;rounded=0;orthogonalLoop=1;jettySize=auto;html=1;" edge="1" parent="WIyWlLk6GJQsqaUBKTNV-1" source="9rlHRxyPnhzW2T0-l2du-51" target="9rlHRxyPnhzW2T0-l2du-52">
          <mxGeometry relative="1" as="geometry" />
        </mxCell>
        <mxCell id="9rlHRxyPnhzW2T0-l2du-51" value="使用结果&lt;div&gt;（可能为空）&lt;/div&gt;" style="whiteSpace=wrap;html=1;rounded=0;" vertex="1" parent="WIyWlLk6GJQsqaUBKTNV-1">
          <mxGeometry x="-897.5" y="-155" width="115" height="50" as="geometry" />
        </mxCell>
        <mxCell id="9rlHRxyPnhzW2T0-l2du-57" value="" style="edgeStyle=orthogonalEdgeStyle;rounded=0;orthogonalLoop=1;jettySize=auto;html=1;" edge="1" parent="WIyWlLk6GJQsqaUBKTNV-1" source="9rlHRxyPnhzW2T0-l2du-52" target="9rlHRxyPnhzW2T0-l2du-56">
          <mxGeometry relative="1" as="geometry" />
        </mxCell>
        <mxCell id="9rlHRxyPnhzW2T0-l2du-52" value="合并所有卡片数据，基于是否命中兜底+卡片展示顺序进行排序，非兜底数据优先展示。" style="whiteSpace=wrap;html=1;rounded=0;" vertex="1" parent="WIyWlLk6GJQsqaUBKTNV-1">
          <mxGeometry x="-842.5" y="-30" width="195" height="60" as="geometry" />
        </mxCell>
        <mxCell id="9rlHRxyPnhzW2T0-l2du-56" value="返回前端" style="ellipse;whiteSpace=wrap;html=1;" vertex="1" parent="WIyWlLk6GJQsqaUBKTNV-1">
          <mxGeometry x="-535" y="-35" width="130" height="70" as="geometry" />
        </mxCell>
        <mxCell id="9rlHRxyPnhzW2T0-l2du-58" value="&lt;div style=&quot;text-align: left;&quot;&gt;&lt;span style=&quot;background-color: initial;&quot;&gt;1、默认类目尽量确保有数据，若无数据，则前端卡片可能会不足3个。&lt;/span&gt;&lt;/div&gt;&lt;div style=&quot;text-align: left;&quot;&gt;&lt;span style=&quot;&quot;&gt;2、如果之前已经是默认类目请求数据并且依然没有结果，则没必要再用默认类目请求了。&lt;/span&gt;&lt;br&gt;&lt;/div&gt;" style="whiteSpace=wrap;html=1;rounded=1;arcSize=50;align=center;verticalAlign=middle;strokeWidth=1;autosize=1;spacing=4;treeFolding=1;treeMoving=1;newEdgeStyle={&quot;edgeStyle&quot;:&quot;entityRelationEdgeStyle&quot;,&quot;startArrow&quot;:&quot;none&quot;,&quot;endArrow&quot;:&quot;none&quot;,&quot;segment&quot;:10,&quot;curved&quot;:1,&quot;sourcePerimeterSpacing&quot;:0,&quot;targetPerimeterSpacing&quot;:0};" vertex="1" parent="WIyWlLk6GJQsqaUBKTNV-1">
          <mxGeometry x="-516" y="-365" width="520" height="50" as="geometry" />
        </mxCell>
        <mxCell id="9rlHRxyPnhzW2T0-l2du-59" value="" style="edgeStyle=entityRelationEdgeStyle;startArrow=none;endArrow=none;segment=10;curved=1;sourcePerimeterSpacing=0;targetPerimeterSpacing=0;rounded=0;exitX=0.5;exitY=0;exitDx=0;exitDy=0;entryX=0.25;entryY=1;entryDx=0;entryDy=0;" edge="1" parent="WIyWlLk6GJQsqaUBKTNV-1" target="9rlHRxyPnhzW2T0-l2du-58" source="9rlHRxyPnhzW2T0-l2du-36">
          <mxGeometry relative="1" as="geometry">
            <mxPoint x="-391" y="-270" as="sourcePoint" />
          </mxGeometry>
        </mxCell>
      </root>
    </mxGraphModel>
  </diagram>
</mxfile>
